# xmcd
#
# Track frame offsets: 
#        150
#        18661
#        35666
#        50165
#        65436
#        92357
#        107743
#        126201
#        158253
#        180118
#        195349
#        207530
#        220739
#
# Disc length: 3129 seconds
#
# Revision: 1
# Processed by: cddbd v1.5.2PL0 Copyright (c) Steve Scherf et al.
# Submitted via: ExactAudioCopyFreeDBPlugin 1.0
#
DISCID=aa0c370d
DTITLE=Nazareth - 1971 Nazareth (2003, SomeWax, SW206-2)
DYEAR=1900
DGENRE=
TTITLE0=01 Witchdoctor Woman
TTITLE1=02 Dear John
TTITLE2=03 Empty Arms, Empty Heart
TTITLE3=04 I Had A Dream
TTITLE4=05 Red Light Lady
TTITLE5=06 Fat Man
TTITLE6=07 Country Girl
TTITLE7=08 Morning Dew
TTITLE8=09 The King Is Dead
TTITLE9=10 Friends (Single B-Side) (Bonus)
TTITLE10=11 Dear John (Alternate Version) (Bonus)
TTITLE11=12 If You See My Baby (Single B-Side) (Bonus)
TTITLE12=13 Spinning Top (Single B-Side) (Bonus)
EXTD=
EXTT0=
EXTT1=
EXTT2=
EXTT3=
EXTT4=
EXTT5=
EXTT6=
EXTT7=
EXTT8=
EXTT9=
EXTT10=
EXTT11=
EXTT12=
PLAYORDER=
